<svg xmlns="http://www.w3.org/2000/svg" xmlns:xlink="http://www.w3.org/1999/xlink" width="1366" zoomAndPan="magnify" viewBox="0 0 1024.5 576" height="768" preserveAspectRatio="xMidYMid meet" version="1.0"><defs><clipPath id="3574543cf3"><path d="M 462 130 L 758.640625 130 L 758.640625 448.277344 L 462 448.277344 Z M 462 130 " clip-rule="nonzero"/></clipPath></defs><path fill="#9b281f" d="M 578.101562 257.1875 C 578.101562 257.1875 522.367188 269.179688 495.414062 278.277344 C 460.75 289.96875 398.695312 318.882812 370.167969 327.335938 C 355.464844 331.6875 325.941406 334.027344 324.226562 329.046875 C 322.511719 324.070312 345.484375 304.066406 359.933594 297.421875 C 386.515625 285.199219 449.453125 269.039062 483.769531 255.703125 C 511.925781 244.753906 565.878906 217.34375 565.878906 217.34375 L 578.101562 257.1875 " fill-opacity="1" fill-rule="evenodd"/><g clip-path="url(#3574543cf3)"><path fill="#282252" d="M 751.632812 392.042969 C 730.304688 377.757812 673.945312 372.410156 610.636719 372.410156 C 554.414062 372.410156 509.054688 386.441406 481.242188 386.441406 C 468.761719 386.441406 462.1875 403.78125 462.1875 410.355469 C 462.1875 431.285156 528.710938 448.277344 610.636719 448.277344 C 692.5625 448.277344 759.0625 431.285156 759.0625 410.355469 C 759.0625 405.585938 757.882812 396.234375 751.632812 392.042969 Z M 589.496094 323.910156 L 535.3125 154.601562 L 612.675781 130.894531 L 668.964844 301.984375 L 589.496094 323.910156 " fill-opacity="1" fill-rule="evenodd"/></g><path fill="#9b281f" d="M 481.589844 403.550781 C 470.800781 398.78125 481.589844 369.5625 481.589844 368.199219 C 481.589844 347.269531 539.941406 330.273438 611.816406 330.273438 C 677.765625 330.273438 732.320312 344.582031 740.863281 363.128906 C 740.863281 363.128906 752.234375 396.605469 740.445312 402.066406 C 718.449219 412.300781 675.195312 422.558594 608.761719 424.433594 C 534.847656 426.492188 502.777344 412.902344 481.589844 403.550781 " fill-opacity="1" fill-rule="evenodd"/><path fill="#fbcb4a" d="M 606.46875 344.882812 C 633.792969 345 658.429688 347.105469 675.867188 350.394531 C 686.195312 352.339844 693.949219 354.675781 698.09375 357.292969 C 699.113281 357.941406 699.878906 358.566406 700.363281 359.238281 C 700.664062 359.65625 700.851562 360.046875 700.851562 360.464844 C 700.851562 360.90625 700.664062 361.296875 700.363281 361.691406 C 699.855469 362.363281 699.089844 362.988281 698.09375 363.613281 C 693.925781 366.207031 686.171875 368.5 675.84375 370.375 C 658.40625 373.570312 633.769531 375.558594 606.46875 375.535156 C 579.167969 375.558594 554.507812 373.589844 537.070312 370.398438 C 526.746094 368.5 518.988281 366.230469 514.820312 363.636719 C 513.824219 362.988281 513.035156 362.363281 512.550781 361.714844 C 512.25 361.296875 512.039062 360.90625 512.039062 360.464844 C 512.039062 359.308594 513.128906 358.359375 514.796875 357.292969 C 518.964844 354.652344 526.722656 352.339844 537.046875 350.394531 C 554.484375 347.105469 579.144531 345.023438 606.46875 344.929688 Z M 606.46875 342.289062 C 578.9375 342.222656 554.066406 344.167969 536.492188 347.359375 C 525.609375 349.351562 517.480469 351.828125 513.105469 354.5625 C 510.164062 356.390625 508.800781 358.472656 508.800781 360.464844 C 508.800781 362.480469 510.164062 364.5625 513.082031 366.390625 C 517.460938 369.167969 525.585938 371.691406 536.46875 373.730469 C 554.042969 377.019531 578.914062 379.078125 606.46875 379.125 C 634.023438 379.101562 658.894531 377.042969 676.46875 373.753906 C 687.328125 371.714844 695.480469 369.167969 699.855469 366.414062 C 702.773438 364.5625 704.140625 362.480469 704.140625 360.464844 C 704.140625 358.472656 702.75 356.390625 699.832031 354.5625 C 695.433594 351.828125 687.304688 349.328125 676.421875 347.359375 C 658.847656 344.167969 633.976562 342.246094 606.46875 342.335938 L 606.46875 342.289062 " fill-opacity="1" fill-rule="evenodd"/><path fill="#9b281f" d="M 672.785156 282.976562 L 576.527344 315.042969 C 576.527344 315.042969 580.28125 351.457031 598.710938 346.527344 C 621.9375 340.277344 657.203125 331.222656 677.8125 321.800781 C 689.667969 316.382812 676.816406 286.867188 672.785156 282.976562 Z M 604.917969 108.300781 C 580.929688 110.660156 542.558594 122.652344 525.726562 131.425781 C 518.175781 135.363281 529.269531 163.285156 529.269531 163.285156 L 620.199219 138.394531 C 621.796875 132.609375 613.046875 107.488281 604.917969 108.300781 Z M 659.890625 255.65625 L 569.28125 281.242188 L 573.355469 294.738281 L 664.726562 270.035156 Z M 630.132812 165.414062 L 538.738281 190.09375 L 534.664062 176.597656 L 625.292969 151.011719 L 630.132812 165.414062 " fill-opacity="1" fill-rule="evenodd"/><path fill="#282252" d="M 373.039062 325.527344 C 372.644531 326.0625 372.160156 326.5 371.648438 326.871094 C 371.164062 327.011719 370.628906 327.195312 370.167969 327.335938 C 369.195312 327.636719 368.152344 327.914062 367.039062 328.167969 C 366.972656 328.074219 366.832031 328.007812 366.808594 327.867188 C 366.648438 327.289062 366.996094 326.6875 367.550781 326.546875 C 367.550781 326.546875 369.449219 325.992188 370.746094 324.671875 C 371.441406 323.976562 371.949219 323.050781 371.789062 321.800781 C 371.765625 321.800781 371.695312 321.730469 371.625 321.710938 C 371.488281 321.640625 371.300781 321.570312 371.117188 321.523438 C 370.398438 321.339844 369.425781 321.292969 368.292969 321.292969 C 364.933594 321.292969 360.234375 321.941406 355.902344 322.425781 C 352.570312 322.796875 349.441406 323.050781 347.289062 322.9375 C 346.292969 322.867188 345.460938 322.703125 344.835938 322.472656 C 344.234375 322.242188 343.792969 321.894531 343.492188 321.5 C 342.636719 320.367188 342.75 318.90625 344.1875 317.378906 C 345.621094 315.828125 348.65625 313.976562 351.988281 311.960938 C 355.996094 309.554688 360.464844 306.9375 362.570312 304.207031 C 363.589844 302.910156 363.84375 302.054688 363.335938 301.429688 C 362.804688 300.78125 361.808594 300.433594 360.859375 300.179688 C 359.214844 299.785156 357.59375 299.738281 357.59375 299.738281 C 357.152344 299.738281 356.851562 299.4375 356.691406 299.066406 C 357.59375 298.582031 358.449219 298.140625 359.308594 297.746094 C 360.140625 297.816406 361.136719 297.933594 362.109375 298.210938 C 363.335938 298.558594 364.425781 299.113281 365.117188 299.921875 C 366.183594 301.152344 366.53125 303.003906 364.5625 305.710938 C 363.636719 306.960938 362.269531 308.234375 360.695312 309.484375 C 356.414062 312.84375 350.367188 316.015625 347.3125 318.515625 C 346.917969 318.839844 346.570312 319.140625 346.292969 319.441406 C 346.222656 319.53125 346.109375 319.648438 346.015625 319.742188 C 346.179688 319.789062 346.410156 319.855469 346.59375 319.902344 C 347.265625 320.019531 348.121094 320.042969 349.117188 320.042969 C 354.210938 319.996094 362.386719 318.722656 367.710938 318.746094 C 370.074219 318.746094 371.949219 319.046875 372.921875 319.648438 C 373.664062 320.113281 374.058594 320.714844 374.148438 321.429688 C 374.359375 323.121094 373.871094 324.464844 373.039062 325.527344 " fill-opacity="1" fill-rule="evenodd"/><path fill="#282252" d="M 457.71875 266.144531 C 457.808594 266.078125 457.878906 266.007812 457.832031 265.984375 C 457.808594 266.054688 457.765625 266.097656 457.71875 266.144531 Z M 467.074219 288.671875 C 465.613281 285.800781 464.269531 282.953125 462.996094 280.058594 C 462.347656 278.601562 461.746094 277.164062 461.144531 275.683594 C 460.566406 274.226562 459.988281 272.765625 459.476562 271.238281 C 459.199219 270.519531 458.96875 269.78125 458.714844 269.039062 C 458.480469 268.296875 458.25 267.558594 458.042969 266.792969 C 458.019531 266.722656 457.789062 266.378906 457.71875 266.144531 L 457.695312 266.191406 C 457.695312 266.167969 457.695312 266.167969 457.71875 266.144531 C 457.695312 266.054688 457.695312 265.960938 457.789062 265.960938 C 457.808594 265.960938 457.808594 265.960938 457.832031 265.984375 C 457.902344 265.820312 457.902344 265.636719 457.832031 265.472656 C 457.671875 265.148438 457.300781 264.988281 456.976562 265.148438 C 456.722656 265.242188 456.515625 265.519531 456.492188 265.9375 C 456.46875 266.332031 456.675781 266.980469 456.722656 267.140625 C 456.882812 267.90625 457.070312 268.691406 457.277344 269.457031 C 457.488281 270.21875 457.695312 270.984375 457.925781 271.75 C 458.367188 273.253906 458.851562 274.710938 459.410156 276.171875 C 459.777344 277.121094 460.171875 278.070312 460.589844 279.019531 C 461.214844 280.429688 461.886719 281.820312 462.605469 283.207031 C 463.644531 285.246094 464.78125 287.261719 465.9375 289.296875 C 465.9375 289.34375 466.007812 289.34375 466.03125 289.367188 C 466.402344 289.226562 466.75 289.089844 467.117188 288.949219 C 467.097656 288.855469 467.117188 288.765625 467.074219 288.671875 Z M 454.152344 267.28125 C 454.199219 267.1875 454.246094 267.117188 454.128906 267.117188 C 454.128906 267.140625 454.128906 267.164062 454.128906 267.1875 C 454.128906 267.210938 454.152344 267.257812 454.152344 267.28125 Z M 467.375 281.679688 C 466.726562 280.128906 466.125 278.53125 465.519531 276.933594 C 464.941406 275.359375 464.339844 273.761719 463.785156 272.140625 L 462.140625 267.441406 C 462.046875 267.1875 461.539062 265.960938 461.375 265.359375 C 461.421875 265.148438 461.351562 264.894531 461.167969 264.734375 C 460.9375 264.503906 460.703125 264.523438 460.566406 264.546875 C 460.378906 264.59375 460.21875 264.710938 460.101562 264.941406 C 460.054688 265.035156 460.035156 265.21875 460.078125 265.519531 C 460.171875 266.078125 460.660156 267.582031 460.75 267.882812 L 462.164062 272.675781 C 462.605469 274.0625 463.042969 275.429688 463.554688 276.773438 C 464.039062 278.113281 464.59375 279.457031 465.152344 280.777344 C 466.261719 283.324219 467.511719 285.800781 468.902344 288.230469 C 469.296875 288.070312 469.710938 287.90625 470.128906 287.746094 C 469.109375 285.753906 468.207031 283.742188 467.375 281.679688 Z M 459.085938 283.464844 C 458.527344 282.074219 458.019531 280.660156 457.53125 279.25 C 457.070312 277.835938 456.582031 276.425781 456.191406 274.964844 L 454.730469 269.917969 C 454.683594 269.757812 454.269531 267.996094 454.152344 267.28125 C 454.105469 267.347656 454.058594 267.394531 454.011719 267.441406 C 454.011719 267.441406 454.035156 267.417969 454.035156 267.394531 C 454.082031 267.328125 454.105469 267.257812 454.128906 267.1875 C 454.105469 267.164062 454.105469 267.117188 454.128906 267.117188 C 454.152344 266.886719 454.035156 266.65625 453.828125 266.515625 C 453.640625 266.398438 453.480469 266.421875 453.339844 266.445312 C 453.179688 266.46875 452.925781 266.609375 452.855469 267.003906 C 452.832031 267.070312 452.855469 267.234375 452.855469 267.441406 C 452.949219 268.207031 453.273438 270.082031 453.320312 270.265625 C 453.503906 271.125 453.6875 271.980469 453.898438 272.835938 C 454.105469 273.714844 454.3125 274.574219 454.523438 275.429688 C 454.917969 276.910156 455.332031 278.394531 455.84375 279.828125 C 456.328125 281.285156 456.882812 282.699219 457.488281 284.109375 C 458.574219 286.589844 459.871094 288.949219 461.261719 291.3125 C 461.675781 291.125 462.09375 290.964844 462.488281 290.800781 C 461.191406 288.394531 460.054688 285.964844 459.085938 283.464844 Z M 474.96875 260.035156 C 475.015625 259.941406 475.015625 259.894531 474.96875 259.871094 C 474.96875 259.917969 474.96875 259.964844 474.945312 260.011719 Z M 475.339844 285.546875 C 474.621094 283.371094 473.925781 281.171875 473.230469 278.996094 C 472.769531 277.535156 472.304688 276.078125 471.820312 274.621094 C 471.496094 273.648438 471.171875 272.675781 470.847656 271.726562 C 470.335938 270.265625 469.828125 268.832031 469.320312 267.394531 L 467.859375 263.296875 C 467.835938 263.230469 467.605469 262.394531 467.488281 262.070312 C 467.421875 261.863281 467.28125 261.746094 467.164062 261.675781 C 466.863281 261.769531 466.5625 261.863281 466.238281 261.976562 C 466.238281 262.023438 466.191406 262.046875 466.191406 262.09375 C 466.167969 262.234375 466.191406 262.347656 466.261719 262.441406 C 466.261719 262.441406 466.261719 262.464844 466.261719 262.464844 C 466.332031 262.582031 466.425781 262.671875 466.5625 262.742188 C 466.472656 262.71875 466.378906 262.671875 466.308594 262.648438 C 466.425781 263.019531 466.539062 263.644531 466.5625 263.714844 L 467.789062 267.90625 C 468.230469 269.363281 468.695312 270.824219 469.15625 272.28125 C 469.480469 273.253906 469.804688 274.226562 470.128906 275.199219 C 470.640625 276.632812 471.148438 278.09375 471.679688 279.527344 C 472.46875 281.679688 473.277344 283.832031 474.089844 285.988281 C 474.113281 286.054688 474.179688 286.078125 474.203125 286.125 C 474.597656 285.964844 474.945312 285.847656 475.339844 285.683594 C 475.316406 285.640625 475.363281 285.59375 475.339844 285.546875 Z M 470.105469 261.792969 Z M 470.011719 261.699219 C 470.035156 261.722656 470.058594 261.769531 470.105469 261.792969 C 470.082031 261.769531 470.058594 261.746094 470.035156 261.722656 C 470.035156 261.722656 470.011719 261.699219 470.011719 261.699219 Z M 474.96875 259.871094 C 474.96875 259.847656 474.992188 259.800781 474.96875 259.800781 C 474.96875 259.824219 474.96875 259.847656 474.96875 259.847656 C 474.96875 259.847656 474.96875 259.847656 474.96875 259.871094 Z M 466.261719 262.464844 L 466.261719 262.441406 C 466.125 262.511719 466.191406 262.582031 466.308594 262.648438 C 466.308594 262.582031 466.285156 262.535156 466.261719 262.488281 C 466.261719 262.488281 466.261719 262.488281 466.261719 262.464844 Z M 470.199219 262.371094 L 470.707031 264.015625 L 472.238281 269.246094 C 472.628906 270.5 472.976562 271.75 473.347656 272.976562 C 473.742188 274.226562 474.113281 275.453125 474.503906 276.703125 C 475.292969 279.179688 476.101562 281.65625 476.960938 284.109375 C 477.074219 284.457031 477.445312 284.644531 477.792969 284.527344 C 478.140625 284.433594 478.328125 284.066406 478.210938 283.71875 C 477.609375 281.632812 477.054688 279.527344 476.472656 277.421875 C 476.101562 276.007812 475.710938 274.597656 475.292969 273.207031 C 474.851562 271.703125 474.390625 270.21875 473.902344 268.738281 L 472.074219 263.574219 L 471.472656 261.933594 C 471.425781 261.839844 471.242188 261.332031 471.148438 261.144531 C 471.101562 261.007812 471.03125 260.9375 471.03125 260.914062 C 470.707031 260.542969 470.382812 260.660156 470.222656 260.75 C 470.152344 260.796875 469.828125 260.9375 469.898438 261.398438 C 469.898438 261.46875 469.921875 261.539062 469.96875 261.609375 C 470.035156 261.585938 470.082031 261.675781 470.105469 261.792969 L 470.128906 261.816406 C 470.175781 262.023438 470.199219 262.324219 470.199219 262.371094 Z M 472.304688 286.589844 C 471.308594 283.484375 470.292969 280.40625 469.25 277.304688 C 468.902344 276.285156 468.554688 275.265625 468.183594 274.25 C 467.8125 273.230469 467.441406 272.210938 467.074219 271.191406 L 465.195312 266.144531 L 464.59375 264.363281 C 464.59375 264.269531 464.640625 263.96875 464.640625 263.875 C 464.664062 263.714844 464.640625 263.597656 464.59375 263.53125 C 464.503906 263.296875 464.339844 263.160156 464.15625 263.113281 C 464.015625 263.089844 463.808594 263.042969 463.554688 263.25 C 463.367188 263.367188 463.273438 263.574219 463.296875 263.785156 C 463.296875 263.785156 463.320312 263.761719 463.367188 263.785156 C 463.414062 263.785156 463.390625 263.875 463.34375 263.96875 C 463.34375 263.945312 463.320312 263.945312 463.320312 263.921875 C 463.320312 263.945312 463.320312 263.96875 463.34375 264.015625 C 463.320312 264.085938 463.273438 264.179688 463.273438 264.222656 C 463.253906 264.410156 463.253906 264.570312 463.296875 264.6875 L 463.808594 266.609375 C 464.0625 267.464844 464.339844 268.34375 464.617188 269.203125 C 464.871094 270.058594 465.152344 270.914062 465.453125 271.773438 C 465.960938 273.300781 466.492188 274.851562 467.027344 276.378906 C 467.558594 277.8125 468.089844 279.226562 468.625 280.636719 C 469.433594 282.769531 470.269531 284.875 471.054688 287.003906 C 471.101562 287.121094 471.21875 287.191406 471.308594 287.28125 C 471.632812 287.144531 471.957031 287.003906 472.28125 286.890625 C 472.304688 286.773438 472.351562 286.679688 472.304688 286.589844 Z M 445.746094 290.523438 C 444.84375 288.554688 444.078125 286.542969 443.363281 284.480469 C 442.875 283.140625 442.433594 281.75 441.996094 280.359375 L 440.167969 274.316406 L 439.609375 272.304688 C 439.585938 272.210938 439.609375 272.074219 439.609375 271.933594 C 439.632812 271.679688 439.632812 271.46875 439.585938 271.308594 C 439.519531 271.03125 439.355469 270.84375 439.148438 270.753906 C 439.125 270.753906 439.078125 270.753906 439.054688 270.753906 C 438.777344 270.824219 438.523438 270.914062 438.265625 271.007812 C 438.175781 271.125 438.128906 271.285156 438.152344 271.449219 C 438.175781 271.5625 438.222656 271.679688 438.3125 271.773438 C 438.289062 272.003906 438.265625 272.441406 438.289062 272.628906 L 438.730469 274.6875 C 438.984375 275.707031 439.214844 276.75 439.496094 277.789062 C 439.773438 278.808594 440.050781 279.851562 440.328125 280.871094 C 440.675781 282.050781 441.023438 283.230469 441.417969 284.390625 C 442.019531 286.148438 442.714844 287.886719 443.476562 289.550781 C 444.636719 292.097656 446.046875 294.53125 447.714844 296.867188 C 448.132812 296.683594 448.546875 296.519531 448.988281 296.335938 C 447.738281 294.460938 446.671875 292.515625 445.746094 290.523438 Z M 440.351562 290.410156 C 439.726562 289.019531 439.171875 287.605469 438.613281 286.195312 C 438.058594 284.757812 437.550781 283.347656 437.0625 281.890625 C 436.644531 280.707031 436.253906 279.503906 435.882812 278.300781 C 435.652344 277.511719 435.394531 276.703125 435.164062 275.914062 L 434.632812 274.015625 C 434.609375 273.902344 434.65625 273.761719 434.65625 273.625 C 434.65625 273.4375 434.65625 273.277344 434.609375 273.160156 C 434.539062 272.90625 434.398438 272.722656 434.191406 272.652344 C 434.074219 272.582031 433.9375 272.558594 433.753906 272.582031 C 433.40625 272.628906 433.148438 272.953125 433.21875 273.300781 C 433.21875 273.414062 433.265625 273.53125 433.335938 273.625 C 433.335938 273.808594 433.3125 274.15625 433.335938 274.316406 L 433.753906 276.261719 C 434.007812 277.304688 434.261719 278.324219 434.539062 279.34375 C 434.816406 280.382812 435.117188 281.402344 435.417969 282.421875 C 435.882812 283.902344 436.367188 285.382812 436.925781 286.84375 C 437.503906 288.300781 438.128906 289.738281 438.824219 291.125 C 440.121094 293.765625 441.671875 296.265625 443.453125 298.628906 C 443.871094 298.464844 444.289062 298.28125 444.703125 298.117188 C 442.992188 295.6875 441.578125 293.09375 440.351562 290.410156 Z M 433.519531 294.738281 C 432.546875 292.839844 431.738281 290.824219 430.972656 288.835938 C 430.1875 286.75 429.46875 284.691406 428.820312 282.722656 C 428.542969 281.890625 428.308594 281.03125 428.054688 280.199219 C 427.683594 278.902344 427.335938 277.628906 426.992188 276.332031 C 426.945312 276.171875 426.804688 275.222656 426.621094 274.597656 C 426.273438 274.710938 425.925781 274.828125 425.554688 274.941406 C 425.71875 275.40625 425.601562 276.515625 425.648438 276.65625 C 425.925781 277.976562 426.203125 279.296875 426.527344 280.59375 C 426.734375 281.472656 426.96875 282.351562 427.222656 283.230469 C 427.824219 285.222656 428.472656 287.351562 429.28125 289.480469 C 430.070312 291.542969 430.996094 293.582031 432.0625 295.523438 C 433.265625 297.746094 434.746094 299.785156 436.367188 301.566406 C 436.808594 301.382812 437.25 301.195312 437.6875 301.035156 C 436.066406 299.183594 434.703125 297.054688 433.519531 294.738281 Z M 482.101562 282.628906 C 481.523438 280.035156 480.898438 277.445312 480.203125 274.898438 C 479.832031 273.601562 479.484375 272.328125 479.089844 271.054688 C 478.695312 269.804688 478.234375 268.554688 477.816406 267.304688 C 477.492188 266.421875 477.191406 265.542969 476.867188 264.664062 C 476.542969 263.785156 476.195312 262.90625 475.847656 262.046875 L 475.199219 260.425781 C 475.175781 260.425781 475.039062 260.21875 474.96875 260.035156 C 474.945312 260.078125 474.921875 260.125 474.898438 260.148438 C 474.921875 260.101562 474.945312 260.058594 474.945312 260.011719 C 474.898438 259.917969 474.898438 259.824219 474.96875 259.800781 C 474.945312 259.476562 474.667969 259.222656 474.320312 259.222656 C 474.136719 259.222656 473.601562 259.410156 473.695312 260.058594 C 473.742188 260.289062 473.925781 260.84375 473.949219 260.890625 L 474.484375 262.535156 L 476.171875 267.835938 C 476.566406 269.039062 476.9375 270.265625 477.308594 271.46875 C 477.886719 273.253906 478.464844 275.058594 479.019531 276.863281 C 479.644531 278.902344 480.269531 280.917969 480.828125 282.929688 C 480.898438 283.183594 481.082031 283.324219 481.335938 283.371094 C 481.566406 283.277344 481.777344 283.207031 482.03125 283.117188 C 482.101562 282.976562 482.148438 282.792969 482.101562 282.628906 Z M 486.917969 256.238281 C 487.355469 257.859375 488.285156 259.800781 488.539062 260.683594 C 488.839844 261.769531 489.140625 263.019531 489.464844 264.316406 C 489.902344 266.191406 490.367188 268.207031 490.832031 270.21875 C 491.570312 273.414062 492.3125 276.585938 492.960938 279.109375 C 492.960938 279.109375 492.960938 279.132812 492.984375 279.132812 C 493.378906 278.996094 493.816406 278.832031 494.210938 278.695312 C 493.5625 275.566406 492.890625 271.492188 492.058594 267.605469 C 491.78125 266.332031 491.5 265.082031 491.175781 263.898438 C 490.832031 262.558594 490.484375 261.308594 490.113281 260.195312 C 489.835938 259.339844 488.792969 257.417969 488.261719 255.820312 C 488.027344 255.171875 487.84375 254.59375 487.9375 254.199219 C 487.960938 254.128906 487.914062 254.082031 487.914062 254.015625 C 487.496094 254.199219 487.078125 254.363281 486.664062 254.523438 C 486.664062 255.011719 486.730469 255.589844 486.917969 256.238281 Z M 488.539062 272.28125 C 488.191406 270.960938 487.84375 269.640625 487.449219 268.34375 C 487.054688 267.046875 486.640625 265.753906 486.222656 264.457031 C 485.621094 262.765625 484.695312 260.75 484.023438 258.851562 C 483.722656 258.019531 483.46875 257.230469 483.328125 256.492188 C 483.304688 256.261719 483.121094 256.097656 482.886719 256.027344 C 482.65625 256.121094 482.402344 256.191406 482.171875 256.285156 C 482.125 256.398438 482.054688 256.539062 482.078125 256.675781 C 482.171875 257.488281 482.378906 258.390625 482.65625 259.316406 C 483.210938 261.214844 484.070312 263.273438 484.554688 264.988281 C 484.949219 266.238281 485.296875 267.464844 485.691406 268.714844 C 486.246094 270.566406 486.824219 272.417969 487.355469 274.296875 C 487.980469 276.355469 488.5625 278.414062 489.09375 280.5 C 489.535156 280.335938 489.902344 280.199219 490.34375 280.058594 C 489.8125 277.445312 489.210938 274.851562 488.539062 272.28125 Z M 436.738281 292.675781 C 435.929688 291.011719 435.1875 289.320312 434.492188 287.582031 C 433.773438 285.871094 433.125 284.132812 432.523438 282.398438 C 431.644531 279.734375 430.878906 277.027344 430.324219 274.316406 C 430.277344 273.992188 429.953125 273.761719 429.605469 273.808594 C 429.261719 273.878906 429.027344 274.203125 429.074219 274.550781 C 429.492188 277.351562 430.09375 280.152344 430.925781 282.90625 C 431.460938 284.714844 432.085938 286.519531 432.824219 288.277344 C 433.542969 290.039062 434.378906 291.75 435.257812 293.441406 C 436.53125 295.824219 437.988281 298.09375 439.496094 300.269531 C 439.910156 300.109375 440.328125 299.921875 440.746094 299.761719 C 439.285156 297.492188 437.964844 295.132812 436.738281 292.675781 Z M 461.332031 265.21875 C 461.308594 265.21875 461.332031 265.242188 461.332031 265.242188 L 461.351562 265.3125 C 461.375 265.242188 461.398438 265.195312 461.332031 265.21875 Z M 458.273438 292.238281 C 456.769531 289.527344 455.402344 286.773438 454.128906 283.972656 C 453.503906 282.582031 452.878906 281.171875 452.300781 279.757812 C 451.71875 278.347656 451.140625 276.933594 450.632812 275.476562 C 450.261719 274.480469 449.890625 273.484375 449.566406 272.488281 C 449.335938 271.816406 449.148438 271.144531 448.964844 270.476562 C 448.894531 270.289062 448.964844 270.035156 448.964844 269.828125 C 448.988281 269.503906 448.988281 269.203125 448.917969 268.945312 C 448.828125 268.667969 448.664062 268.4375 448.363281 268.296875 C 448.0625 268.136719 447.667969 268.253906 447.507812 268.578125 C 447.34375 268.855469 447.460938 269.246094 447.738281 269.410156 C 447.738281 269.550781 447.621094 269.804688 447.597656 269.964844 C 447.550781 270.265625 447.550781 270.542969 447.597656 270.800781 C 447.761719 271.515625 447.921875 272.210938 448.109375 272.90625 C 448.410156 273.972656 448.734375 274.988281 449.058594 276.007812 C 449.542969 277.511719 450.054688 278.996094 450.632812 280.429688 C 451.210938 281.890625 451.859375 283.324219 452.554688 284.714844 C 453.921875 287.515625 455.496094 290.222656 457.140625 292.886719 C 457.164062 292.933594 457.183594 292.933594 457.207031 292.957031 C 457.578125 292.792969 457.949219 292.652344 458.320312 292.515625 C 458.296875 292.398438 458.320312 292.308594 458.273438 292.238281 Z M 443.59375 269.457031 C 443.546875 269.640625 443.429688 269.757812 443.339844 269.828125 C 443.429688 269.757812 443.523438 269.664062 443.546875 269.550781 C 443.570312 269.527344 443.570312 269.480469 443.59375 269.457031 Z M 452.972656 294.691406 C 452.554688 294.875 452.113281 295.039062 451.699219 295.222656 C 450.144531 292.769531 448.757812 290.222656 447.597656 287.582031 C 446.949219 286.078125 446.347656 284.574219 445.792969 283.023438 C 445.261719 281.472656 444.796875 279.921875 444.335938 278.347656 C 444.03125 277.328125 443.753906 276.285156 443.5 275.246094 C 443.246094 274.203125 442.992188 273.183594 442.757812 272.117188 C 442.734375 271.980469 442.457031 270.382812 442.367188 269.710938 C 442.78125 269.570312 443.199219 269.457031 443.617188 269.316406 C 443.617188 269.339844 443.617188 269.339844 443.617188 269.363281 L 443.617188 269.339844 L 443.59375 269.410156 C 443.617188 269.410156 443.617188 269.386719 443.617188 269.363281 C 443.617188 269.386719 443.640625 269.433594 443.640625 269.457031 C 443.753906 270.082031 444.101562 271.632812 444.148438 271.773438 C 444.425781 272.789062 444.726562 273.808594 445.027344 274.828125 C 445.328125 275.847656 445.628906 276.839844 445.976562 277.859375 C 446.441406 279.320312 446.925781 280.777344 447.4375 282.234375 C 448.199219 284.414062 448.988281 286.566406 449.914062 288.671875 C 450.816406 290.734375 451.859375 292.746094 452.972656 294.691406 Z M 454.152344 267.28125 Z M 486.292969 281.519531 C 485.851562 281.679688 485.433594 281.84375 485.019531 282.003906 C 484.671875 280.683594 484.300781 279.386719 483.882812 278.09375 C 483.210938 275.9375 482.449219 273.785156 481.707031 271.632812 C 481.222656 270.195312 480.757812 268.738281 480.292969 267.28125 C 479.96875 266.167969 479.621094 265.082031 479.300781 263.96875 C 479.089844 263.230469 478.882812 262.488281 478.671875 261.746094 L 478.1875 259.917969 C 478.140625 259.757812 478.117188 259.386719 478.117188 259.152344 C 477.863281 258.898438 477.863281 258.503906 478.117188 258.25 C 478.28125 258.066406 478.464844 258.042969 478.605469 258.019531 C 478.765625 258.019531 478.929688 258.066406 479.066406 258.160156 C 479.160156 258.25 479.277344 258.390625 479.34375 258.597656 C 479.414062 258.808594 479.414062 259.292969 479.484375 259.523438 L 480.085938 261.308594 L 481.960938 266.746094 C 482.378906 267.976562 482.796875 269.203125 483.210938 270.453125 C 483.835938 272.304688 484.417969 274.203125 484.949219 276.078125 C 485.457031 277.882812 485.898438 279.710938 486.292969 281.519531 " fill-opacity="1" fill-rule="nonzero"/><path fill="#fbcb4a" d="M 660.328125 278.394531 C 660.398438 278.601562 660.28125 278.832031 660.050781 278.925781 C 660.050781 278.925781 650.234375 282.027344 637.730469 285.941406 C 633.003906 287.398438 627.910156 288.996094 622.816406 290.570312 C 617.722656 292.121094 612.605469 293.671875 607.882812 295.109375 C 595.355469 298.929688 585.488281 301.890625 585.488281 301.890625 C 585.257812 301.960938 585.003906 301.84375 584.933594 301.613281 C 584.863281 301.382812 585.003906 301.128906 585.234375 301.058594 C 585.234375 301.058594 595.054688 297.957031 607.558594 294.042969 C 612.28125 292.585938 617.375 290.988281 622.46875 289.414062 C 627.5625 287.839844 632.65625 286.289062 637.382812 284.851562 C 649.933594 281.054688 659.796875 278.09375 659.796875 278.09375 C 660.027344 278.023438 660.257812 278.160156 660.328125 278.394531 Z M 564 161.753906 C 551.058594 165.390625 540.890625 168.214844 540.890625 168.214844 C 540.660156 168.285156 540.40625 168.167969 540.335938 167.9375 C 540.289062 167.707031 540.40625 167.449219 540.660156 167.382812 C 540.660156 167.382812 550.78125 164.417969 563.675781 160.691406 C 568.539062 159.277344 573.796875 157.773438 579.054688 156.269531 C 584.308594 154.765625 589.589844 153.28125 594.453125 151.917969 C 607.394531 148.28125 617.558594 145.457031 617.558594 145.457031 C 617.792969 145.386719 618.023438 145.527344 618.09375 145.757812 C 618.164062 145.964844 618.023438 146.199219 617.792969 146.265625 C 617.792969 146.265625 607.671875 149.253906 594.777344 152.980469 C 589.914062 154.394531 584.65625 155.921875 579.398438 157.425781 C 574.121094 158.910156 568.863281 160.390625 564 161.753906 Z M 597.160156 268.160156 C 584.378906 271.933594 574.351562 274.875 574.351562 274.875 C 574.121094 274.941406 573.867188 274.804688 573.796875 274.574219 C 573.726562 274.339844 573.867188 274.109375 574.074219 274.039062 C 574.074219 274.039062 584.101562 270.984375 596.835938 267.09375 C 601.628906 265.636719 606.816406 264.0625 612.027344 262.511719 C 617.214844 260.960938 622.421875 259.410156 627.214844 257.996094 C 640 254.222656 650.046875 251.304688 650.046875 251.304688 C 650.277344 251.234375 650.511719 251.375 650.582031 251.582031 C 650.648438 251.816406 650.511719 252.046875 650.277344 252.117188 C 650.277344 252.117188 640.300781 255.195312 627.539062 259.0625 C 622.746094 260.519531 617.558594 262.09375 612.351562 263.667969 C 607.164062 265.21875 601.976562 266.746094 597.160156 268.160156 Z M 587.367188 182.292969 C 582.25 183.75 577.132812 185.207031 572.40625 186.574219 C 559.8125 190.164062 549.921875 192.941406 549.921875 192.941406 C 549.691406 193.011719 549.460938 192.871094 549.390625 192.640625 C 549.320312 192.410156 549.460938 192.175781 549.691406 192.105469 C 549.691406 192.105469 559.53125 189.191406 572.082031 185.507812 C 576.808594 184.121094 581.925781 182.617188 587.042969 181.132812 C 592.160156 179.652344 597.277344 178.195312 602 176.828125 C 614.574219 173.261719 624.484375 170.484375 624.484375 170.484375 C 624.714844 170.414062 624.945312 170.554688 625.015625 170.761719 C 625.0625 170.992188 624.945312 171.226562 624.714844 171.292969 C 624.714844 171.292969 614.875 174.234375 602.324219 177.914062 C 597.601562 179.304688 592.484375 180.808594 587.367188 182.292969 Z M 558.769531 250.519531 C 560.273438 253.828125 562.058594 257.210938 564.234375 260.449219 C 564.371094 260.636719 564.324219 260.914062 564.117188 261.050781 C 563.933594 261.191406 563.65625 261.144531 563.515625 260.9375 C 561.246094 257.695312 559.324219 254.316406 557.75 250.980469 C 556.613281 248.574219 555.644531 246.1875 554.855469 243.898438 C 553.929688 241.28125 553.210938 238.804688 552.65625 236.535156 C 550.964844 229.890625 550.640625 225.214844 550.640625 225.214844 C 550.617188 224.984375 550.78125 224.773438 551.035156 224.75 C 551.242188 224.726562 551.453125 224.914062 551.476562 225.144531 C 551.476562 225.144531 551.984375 229.726562 553.722656 236.257812 C 554.324219 238.480469 555.0625 240.910156 555.96875 243.480469 C 556.777344 245.75 557.679688 248.109375 558.769531 250.519531 " fill-opacity="1" fill-rule="evenodd"/><path fill="#282252" d="M 737.992188 361.320312 C 737.367188 360.949219 736.558594 361.160156 736.1875 361.761719 C 735.144531 363.453125 732.597656 365.234375 728.984375 367.15625 C 720.972656 371.367188 707.773438 375.835938 692.351562 379.65625 C 669.984375 385.191406 642.960938 389.359375 620.199219 389.101562 C 608.230469 389.035156 597.023438 388.6875 586.554688 388.109375 C 567.542969 387.066406 550.941406 385.214844 536.515625 382.390625 C 514.425781 378.058594 497.5 371.554688 485.066406 362.363281 C 484.507812 361.945312 483.699219 362.0625 483.28125 362.640625 C 482.863281 363.195312 482.980469 363.984375 483.535156 364.421875 C 496.15625 373.9375 513.359375 380.882812 535.890625 385.515625 C 550.410156 388.5 567.175781 390.539062 586.347656 391.648438 C 596.882812 392.273438 608.136719 392.597656 620.175781 392.691406 C 643.21875 392.785156 670.539062 388.453125 693.117188 382.667969 C 708.769531 378.660156 722.152344 373.914062 730.257812 369.5625 C 734.425781 367.316406 737.25 365.09375 738.433594 363.128906 C 738.804688 362.523438 738.617188 361.714844 737.992188 361.320312 Z M 583.753906 342.660156 C 581.738281 339.859375 580.371094 336.015625 579.65625 333.515625 C 579.445312 332.820312 579.816406 332.082031 580.511719 331.871094 C 581.207031 331.640625 581.949219 332.035156 582.15625 332.730469 C 582.898438 334.976562 584.195312 338.425781 586.117188 340.878906 C 587.226562 342.3125 588.546875 343.449219 590.167969 343.425781 C 593.523438 343.378906 600.007812 342.175781 607.511719 340.671875 C 612.699219 339.628906 618.371094 338.425781 623.789062 337.242188 C 636.734375 334.464844 648.195312 331.894531 648.195312 331.894531 C 648.890625 331.710938 649.585938 332.128906 649.746094 332.820312 C 649.933594 333.492188 649.515625 334.1875 648.84375 334.351562 C 648.84375 334.351562 639.441406 336.988281 628.027344 339.765625 C 623.535156 340.878906 618.742188 341.988281 614.0625 342.984375 C 609.917969 343.863281 605.890625 344.628906 602.300781 345.230469 C 597.066406 346.109375 592.714844 346.621094 590.167969 346.597656 C 587.621094 346.550781 585.445312 344.976562 583.753906 342.660156 " fill-opacity="1" fill-rule="evenodd"/><path fill="#fbcb4a" d="M 743.875 381.949219 C 744.5 381.625 745.285156 381.878906 745.585938 382.503906 C 745.910156 383.128906 745.65625 383.894531 745.03125 384.21875 C 745.03125 384.21875 715.554688 399.40625 668.550781 406.8125 C 656.390625 408.757812 643.054688 410.148438 628.769531 410.609375 C 616.148438 411.027344 602.789062 410.679688 588.824219 409.382812 C 559 406.535156 536.792969 402.4375 520.445312 398.226562 C 486.683594 389.519531 477.585938 380.257812 477.585938 380.257812 C 477.074219 379.75 477.074219 378.917969 477.585938 378.40625 C 478.09375 377.875 478.929688 377.875 479.4375 378.40625 C 479.4375 378.40625 488.421875 387.089844 521.210938 395.261719 C 537.464844 399.3125 559.53125 403.226562 589.148438 405.863281 C 602.972656 407.136719 616.171875 407.414062 628.652344 407.046875 C 642.800781 406.605469 656 405.308594 668.039062 403.503906 C 714.558594 396.511719 743.875 381.949219 743.875 381.949219 " fill-opacity="1" fill-rule="evenodd"/></svg>