<svg xmlns="http://www.w3.org/2000/svg" xmlns:xlink="http://www.w3.org/1999/xlink" width="1366" zoomAndPan="magnify" viewBox="0 0 1024.5 576" height="768" preserveAspectRatio="xMidYMid meet" version="1.0"><defs><clipPath id="530895b582"><path d="M 370 84 L 719.582031 84 L 719.582031 334 L 370 334 Z M 370 84 " clip-rule="nonzero"/></clipPath></defs><g clip-path="url(#530895b582)"><path fill="#231f20" d="M 482.757812 240.738281 C 484.515625 240.8125 485.992188 240.671875 486.632812 240.59375 C 487.941406 239.707031 493.113281 236.222656 498.523438 232.617188 C 504.707031 228.496094 511.425781 224.066406 512.835938 223.363281 C 515.652344 221.953125 518.359375 224.515625 520.546875 227.066406 L 719.230469 84.660156 C 716.789062 105.332031 706.027344 126.585938 695.246094 143.25 C 674.367188 175.511719 612.75 220.984375 590.78125 230.386719 C 576.191406 236.632812 561.257812 236.632812 545.859375 237.191406 C 541.246094 237.355469 536.316406 238.152344 532.769531 241.292969 C 534.925781 244.332031 536.359375 247.148438 535.488281 248.457031 C 535.335938 248.683594 535.144531 248.882812 534.996094 249.03125 L 534.417969 249.558594 C 527.964844 255.152344 520.941406 259.917969 514.703125 265.847656 C 506.058594 274.0625 471.285156 304.324219 455.824219 315.375 C 440.511719 326.324219 412.035156 340.097656 392.449219 329.578125 C 373.050781 319.15625 366.414062 302.785156 373.246094 276.816406 C 380.144531 250.609375 410.949219 230.683594 433.632812 227.089844 C 449.808594 224.523438 463.5 228.992188 475.863281 238.707031 C 477.644531 240.105469 480.308594 240.628906 482.757812 240.738281 Z M 462.585938 270.757812 C 464.25 258.875 459.824219 249.8125 452.175781 247.160156 C 444.140625 244.371094 426.015625 245.644531 409.066406 261.125 C 392.15625 276.570312 390.113281 290.804688 395.601562 303.695312 C 400.734375 315.746094 420.976562 314.132812 432.316406 308.679688 C 443.148438 303.46875 460.953125 282.375 462.585938 270.757812 Z M 462.585938 270.757812 " fill-opacity="1" fill-rule="evenodd"/></g><path fill="#bdbcbc" d="M 522.660156 229.601562 C 522.902344 229.878906 523.132812 230.136719 523.351562 230.351562 C 524.023438 231.027344 527.628906 234.722656 530.78125 238.664062 C 538.003906 232.46875 549.472656 233.949219 558.269531 233.554688 C 567.71875 233.132812 578.894531 231.898438 589.488281 227.363281 C 610.976562 218.167969 672.027344 173.078125 692.488281 141.460938 C 701.863281 126.96875 710.996094 109.054688 714.804688 91.882812 Z M 522.660156 229.601562 " fill-opacity="1" fill-rule="nonzero"/><path fill="#80d2a2" d="M 465.839844 271.214844 C 464.023438 284.167969 445.3125 306.074219 433.742188 311.640625 C 422.679688 316.964844 399.082031 320.253906 392.578125 304.984375 C 386.433594 290.554688 389.128906 274.882812 406.851562 258.699219 C 424.53125 242.550781 443.890625 240.804688 453.253906 244.050781 C 463 247.433594 467.621094 258.523438 465.839844 271.214844 Z M 532.375 246.972656 C 530.949219 243.90625 516.78125 226.964844 514.804688 226.238281 C 514.6875 226.195312 514.578125 226.167969 514.308594 226.304688 C 511.695312 227.613281 490.933594 241.65625 487.851562 243.738281 C 487.851562 243.738281 485.347656 244.140625 482.613281 244.023438 C 475.40625 243.707031 474.089844 241.074219 468.835938 237.667969 C 458.441406 230.925781 446.550781 228.371094 434.148438 230.335938 C 412.292969 233.800781 382.886719 253.101562 376.425781 277.65625 C 369.902344 302.445312 376.191406 317.113281 394.003906 326.679688 C 411.636719 336.152344 438.472656 323.738281 453.914062 312.703125 C 469.203125 301.769531 503.851562 271.625 512.441406 263.460938 C 518.714844 257.5 525.773438 252.699219 532.265625 247.074219 Z M 532.375 246.972656 " fill-opacity="1" fill-rule="evenodd"/><path fill="#231f20" d="M 514.105469 361.988281 C 509.210938 373.632812 502.710938 392.144531 510.597656 408.664062 C 514.667969 417.1875 533.488281 421.699219 547.957031 411.75 C 562.320312 401.867188 569.21875 381.867188 569.671875 370.265625 C 570.171875 357.425781 568.175781 338.265625 552.609375 335.667969 C 551.191406 335.433594 549.601562 335.246094 547.753906 335.015625 C 541.109375 334.191406 523.015625 340.792969 514.105469 361.988281 Z M 487.40625 378.648438 C 490.027344 365.019531 501.417969 342.785156 505.800781 334.246094 C 505.800781 334.246094 515.566406 316.394531 525.46875 298.359375 C 535.3125 280.425781 545.445312 262.027344 546.101562 261.105469 C 547.828125 258.691406 550.996094 260.132812 553.417969 261.003906 C 557.410156 255.515625 557.820312 248.339844 556.089844 241.898438 C 554.171875 234.78125 546.691406 213.734375 549.292969 206.902344 C 551.539062 200.996094 579.277344 148.535156 593.511719 124.433594 C 607.832031 100.1875 626.894531 80.222656 637.046875 73.734375 C 640.101562 71.78125 665.941406 57.753906 670.691406 59.007812 C 671.261719 59.160156 672.171875 59.699219 672.171875 60.871094 C 672.171875 63.71875 611.734375 194.601562 604.074219 211.21875 L 573.839844 270.925781 C 575.703125 272.253906 576.917969 273.480469 576.917969 274.421875 C 576.917969 276.996094 571.449219 288.144531 570.523438 290.660156 C 568.296875 296.710938 565.082031 305.960938 565.902344 312.371094 C 566.3125 315.59375 567.472656 317.585938 569.625 320.257812 C 571.894531 323.074219 575.074219 326.421875 579.179688 332.195312 C 587.640625 344.097656 590.765625 360.441406 587.1875 377.660156 C 583.710938 394.402344 575.878906 423.039062 553.21875 433.710938 C 533.269531 443.105469 511.222656 440.34375 496.679688 423.316406 C 482.171875 406.332031 484.828125 392.078125 487.40625 378.644531 Z M 487.40625 378.648438 " fill-opacity="1" fill-rule="evenodd"/><path fill="#deddde" d="M 556.730469 262.175781 C 560.023438 263.519531 566.359375 266.363281 571.058594 269.140625 L 601.105469 209.8125 C 601.105469 209.8125 618.085938 172.957031 635.066406 135.824219 C 650.1875 102.765625 664.898438 70.292969 668.199219 62.582031 L 667.328125 62.847656 C 657.949219 65.890625 646.996094 71.277344 638.816406 76.507812 C 629.246094 82.625 610.507812 102.125 596.34375 126.109375 C 582.089844 150.242188 554.496094 202.46875 552.363281 208.074219 C 550.289062 213.515625 557.695312 235.222656 559.261719 241.042969 C 560.960938 247.351562 560.730469 256.269531 556.730469 262.175781 Z M 556.730469 262.175781 " fill-opacity="1" fill-rule="nonzero"/><path fill="#80d2a2" d="M 573.546875 274.78125 C 570.328125 272.082031 551.8125 262.773438 548.753906 263.054688 C 547.664062 264.582031 508.753906 335.695312 508.691406 335.804688 C 504.207031 344.546875 493.140625 366.230469 490.636719 379.269531 C 488.089844 392.519531 485.710938 405.414062 499.175781 421.179688 C 512.601562 436.894531 532.976562 439.609375 551.816406 430.738281 C 572.816406 420.847656 580.453125 393.925781 583.972656 376.992188 C 587.390625 360.53125 584.355469 345.152344 576.5 334.105469 C 572.449219 328.402344 569.308594 325.101562 567.066406 322.324219 C 558.90625 312.199219 563.40625 300.484375 567.441406 289.527344 C 569.238281 284.636719 572.023438 279.976562 573.496094 274.984375 L 573.546875 274.785156 Z M 511.078125 360.710938 C 520.445312 338.429688 539.785156 330.710938 548.15625 331.75 C 555.660156 332.683594 559.457031 332.988281 565.226562 339.007812 C 571.085938 345.128906 573.421875 358.394531 572.957031 370.390625 C 572.476562 382.675781 565.292969 403.816406 549.816406 414.457031 C 534.449219 425.03125 512.929688 421.175781 507.632812 410.082031 C 499.050781 392.105469 506.207031 372.292969 511.078125 360.710938 Z M 511.078125 360.710938 " fill-opacity="1" fill-rule="evenodd"/><path fill="#e9e9e9" d="M 599.632812 212.71875 C 598.753906 205.605469 598.113281 196.433594 599.492188 190.132812 C 601.628906 180.363281 642.492188 95.144531 655.898438 67.328125 C 659.777344 65.578125 663.671875 64.035156 667.328125 62.847656 L 668.199219 62.582031 C 664.898438 70.292969 650.1875 102.765625 635.070312 135.824219 C 618.089844 172.957031 601.105469 209.8125 601.105469 209.8125 L 599.636719 212.71875 Z M 599.632812 212.71875 " fill-opacity="1" fill-rule="nonzero"/><path fill="#231f20" d="M 576.847656 204.015625 C 582.09375 204.015625 586.34375 208.269531 586.34375 213.515625 C 586.34375 218.765625 582.09375 223.019531 576.847656 223.019531 C 571.605469 223.019531 567.355469 218.765625 567.355469 213.515625 C 567.355469 208.269531 571.605469 204.015625 576.847656 204.015625 Z M 576.847656 206.210938 C 572.816406 206.210938 569.546875 209.480469 569.546875 213.515625 C 569.546875 217.554688 572.816406 220.824219 576.847656 220.824219 C 580.882812 220.824219 584.152344 217.554688 584.152344 213.515625 C 584.152344 209.480469 580.882812 206.210938 576.847656 206.210938 Z M 576.847656 206.210938 " fill-opacity="1" fill-rule="nonzero"/></svg>